<?xml version="1.0" encoding="utf-8"?>
<!-- Generator: Adobe Illustrator 21.1.0, SVG Export Plug-In . SVG Version: 6.00 Build 0)  -->
<svg version="1.1" id="_x30_" xmlns="http://www.w3.org/2000/svg" xmlns:xlink="http://www.w3.org/1999/xlink" x="0px" y="0px"
	 viewBox="0 0 128 138" style="enable-background:new 0 0 128 138;" xml:space="preserve">
<style type="text/css">
	.st0{fill:#FFFFFF;}
	.st1{fill:#717071;}
</style>
<g>
	<rect class="st0" width="128" height="138"/>
	<path class="st1" d="M128,125.042v2.265c-0.786,1.168-2.321,0.841-3.534,1.153c-1.366,0.351-2.6,1.151-3.195,2.464
		c-0.643,1.419-0.463,3.08,0.08,4.499c0.349,0.911,0.854,1.767,1.451,2.577h-4.788c-0.342-0.687-0.623-1.405-0.832-2.144
		c-0.849-3.007-0.405-6.377,1.756-8.742c1.019-1.117,2.338-1.915,3.767-2.393c0.82-0.276,1.676-0.445,2.535-0.532
		c0.56-0.056,1.179-0.14,1.725,0.046C127.408,124.384,127.765,124.677,128,125.042z"/>
	<path class="st1" d="M128,133.494V138c-1.232,0-2.263-1.025-2.263-2.253C125.737,134.512,126.773,133.499,128,133.494z"/>
	<path class="st1" d="M19.748,138h-5.8c-0.686-0.367-1.419-0.662-2.057-0.909c-2.404-0.928-5.324-1.412-6.945-3.629
		c-0.779-1.061-1.031-2.408-0.706-3.682c0.674-2.662,3.115-4.262,5.053-5.971c1.907-1.683,3.66-3.551,5.242-5.541
		c0.33-0.416,0.626-0.902,1.094-1.18c0.929-0.551,2.166-0.271,2.763,0.631c1.077,1.634-0.779,3.29-1.756,4.429
		c-1.72,2.007-3.59,3.897-5.632,5.577c-0.936,0.769-2.062,1.571-2.632,2.674c-0.247,0.479-0.182,0.67,0.245,0.996
		c0.4,0.307,0.881,0.517,1.346,0.704c2.61,1.032,5.332,1.661,7.612,3.389C18.503,136.194,19.241,137.045,19.748,138z"/>
	<path class="st1" d="M0.056,127.223c-0.017,0.029-0.036,0.058-0.056,0.085v-2.265C0.417,125.675,0.48,126.526,0.056,127.223z"/>
	<path class="st1" d="M31.469,133.496c-1.421-1.136-3.178-2.432-4.992-2.838c-1.579-0.353-2.979,1.228-2.375,2.744
		c0.233,0.58,0.691,0.957,1.257,1.184c0.839,0.331,1.618,0.725,2.368,1.228c0.371,0.251,0.733,0.517,1.084,0.795
		c0.325,0.259,0.919,0.602,1.13,0.962c0.075,0.128,0.138,0.273,0.184,0.428h5.819C34.615,136.344,33.123,134.818,31.469,133.496z"/>
	<path class="st1" d="M56.885,128.028c-0.553,0.326-1.249,0.421-1.839,0.677c-0.577,0.251-1.128,0.563-1.635,0.938
		c-2.258,1.663-3.398,4.371-3.905,7.047c-0.082,0.435-0.15,0.873-0.201,1.31h-6.938c-1.608-2.795-3.503-5.423-5.756-7.729
		c-1.849-1.89-3.944-3.563-6.275-4.83c-2.008-1.093-4.344-2.053-6.661-2.118c-2.654-0.063-2.532-4.049,0.097-4.086
		c2.319-0.029,4.781,0.844,6.862,1.787c1.843,0.837,3.583,1.895,5.196,3.114c4.002,3.02,7.212,6.977,9.756,11.263
		c0.679-3.162,2.108-6.223,4.575-8.389c1.167-1.025,2.523-1.813,3.98-2.345c1.218-0.447,2.671-0.776,3.464,0.561
		C58.173,126.186,57.846,127.462,56.885,128.028z"/>
	<path class="st1" d="M66.782,129.084c-0.058,1.235-1.009,1.692-2.028,2.036c-2.513,0.841-6.481,2.659-6.486,5.785
		c0,0.36,0.049,0.728,0.126,1.095h-4.148c-0.815-5.812,5.033-9.639,9.955-10.988C65.526,126.657,66.848,127.721,66.782,129.084z"/>
	<path class="st1" d="M73.017,128.361c-1.231,0-2.262,1.026-2.262,2.254c0,1.227,1.03,2.254,2.262,2.254
		c1.196,0,2.212-0.97,2.258-2.161C75.323,129.446,74.288,128.361,73.017,128.361z"/>
	<path class="st1" d="M2.261,135.747C2.261,136.975,1.23,138,0,138v-4.506c0.029,0,0.061,0.002,0.092,0.002
		C1.288,133.542,2.261,134.555,2.261,135.747z"/>
	<path class="st1" d="M16.961,128.985c0,1.227,1.03,2.254,2.262,2.254c1.231,0,2.262-1.027,2.262-2.254
		c0-1.192-0.974-2.204-2.169-2.25C18.049,126.686,16.961,127.718,16.961,128.985z"/>
	<path class="st1" d="M75.605,138h-4.036c0.058-0.157,0.146-0.319,0.264-0.484c0.737-1.03,2.246-1.127,3.134-0.242
		C75.192,137.5,75.406,137.741,75.605,138z"/>
	<path class="st1" d="M97.843,138H93.47c-0.648-0.517-1.317-1.003-2.006-1.458c-2.603-1.716-5.533-3.032-8.597-3.658
		c-0.844-0.172-1.955-0.121-2.651-0.674c-1.113-0.892-0.965-2.674,0.277-3.373c0.881-0.496,2.072-0.176,2.998,0.005
		c1.499,0.292,2.971,0.735,4.398,1.281c3.442,1.322,6.622,3.293,9.385,5.722C97.931,136.424,98.081,137.275,97.843,138z"/>
	<path class="st1" d="M60.541,120.225"/>
	<path class="st1" d="M110.515,133.005c-0.051,0.242,0.104,0.264,0.34,0.503c0.468,0.476,0.91,0.979,1.327,1.501
		c0.747,0.938,1.424,1.941,2.006,2.99h-4.876c-0.243-0.329-0.497-0.65-0.769-0.962c-1.977-2.277-4.536-3.742-7.304-4.867
		c-5.649-2.294-10.882-5.483-16.587-7.661c-2.945-1.124-6.03-2.12-9.169-2.509c-3.139-0.387-6.278-0.138-9.429-0.181
		c-1.489-0.019-3.083-0.101-4.427-0.807c-1.128-0.59-2.096-1.716-1.519-3.044c0.502-1.153,1.984-1.586,3.03-0.88
		c1.012,0.682,2.183,0.648,3.394,0.65c2.974,0.002,5.938-0.169,8.905,0.145c3.197,0.341,6.319,1.243,9.339,2.316
		c5.482,1.951,10.479,4.85,15.745,7.262c1.23,0.561,2.511,0.998,3.74,1.557c0.672,0.302,1.332,0.631,1.975,0.989
		c0.216,0.121,0.822,0.626,1.014,0.524c0.265-0.14,0.543-0.757,0.713-0.996c0.434-0.604,0.868-1.211,1.303-1.815
		c0.893-1.248,1.788-2.495,2.68-3.74c0.18-0.249,0.347-0.508,0.536-0.749c0.689-0.878,1.921-1.146,2.862-0.476
		c0.939,0.667,1.084,1.917,0.473,2.85c-1.409,2.159-3.015,4.211-4.519,6.305C111.102,132.188,110.588,132.669,110.515,133.005z"/>
	<path class="st1" d="M91.757,32.535c0.213-4.798,1.596-9.592,3.622-13.93c0.144-0.309,0.292-0.616,0.444-0.921
		c0.154-0.308,0.142-0.424,0.482-0.436c0.48-0.017,1.062,0.28,1.477,0.488c1.074,0.536,2.009,1.314,2.872,2.137
		c0.697,0.664,1.591,1.011,2.518,0.556c0.879-0.432,1.333-1.44,1.073-2.381c-0.296-1.072-1.58-1.923-2.422-2.566
		c-1.08-0.826-2.271-1.54-3.571-1.963c1.221-1.8,2.618-3.489,4.216-4.971c0.76-0.704,1.564-1.361,2.413-1.956
		c0.758-0.531,1.853-0.934,2.46-1.634c1.135-1.309,0.147-3.403-1.583-3.377c-0.89,0.013-1.721,0.672-2.437,1.133
		c-0.836,0.539-1.639,1.128-2.406,1.76C94.256,9.955,90.114,18.376,88.395,26.7c-0.242,1.171-0.434,2.353-0.565,3.541
		c-0.106,0.959-0.409,2.25,0.065,3.149C88.842,35.189,91.663,34.567,91.757,32.535z"/>
	<path class="st1" d="M105.772,30.655c0,6.719,3.458,12.676,8.608,16.841c1.008,0.815,2.25,1.559,3.412,0.499
		c1.034-0.943,0.757-2.398-0.246-3.213c-2.34-1.9-4.434-3.993-5.845-6.686c-3.227-6.156-1.845-13.534,2.12-19.01
		c0.95-1.311,2.046-2.522,3.283-3.57c0.605-0.512,1.245-0.985,1.92-1.402c0.586-0.361,1.098-0.696,1.316-1.386
		c0.387-1.223-0.481-2.529-1.764-2.648c-1.263-0.117-2.579,1.091-3.498,1.811C109.448,16.301,105.774,23.494,105.772,30.655z"/>
	<path class="st1" d="M90.145,43.569c3.299,1.436,7.135,1.534,10.667,1.183c1.183-0.118,2.564-0.164,3.08-1.45
		c0.263-0.654,0.163-1.387-0.242-1.959c-0.481-0.679-0.933-1.289-1.274-2.059c-1.498-3.376-1.743-7.364-0.992-10.951
		c0.285-1.361-0.427-2.819-2.009-2.764c-1.707,0.059-2.006,1.733-2.222,3.079c-0.645,4.031-0.209,8.399,1.421,12.16
		c-1.307,0.042-2.624-0.004-3.918-0.201c-0.62-0.094-1.236-0.223-1.837-0.405c-0.545-0.164-1.08-0.478-1.649-0.535
		C88.912,39.44,88.063,42.661,90.145,43.569z"/>
	<path class="st1" d="M113.921,57.617c0.498-0.719,1.295-1.213,1.411-2.141c0.099-0.782-0.279-1.573-0.951-1.99
		c-1.654-1.027-3.06,0.666-3.898,1.905c-2.354,3.479-2.611,8.185-0.417,11.801c1.996,3.29,5.691,5.357,9.346,6.304
		c1.582,0.41,3.201-0.948,2.601-2.619c-0.314-0.875-1.038-1.172-1.86-1.421c-0.917-0.278-1.819-0.617-2.678-1.044
		c-1.823-0.905-3.516-2.255-4.328-4.165C112.238,62.104,112.605,59.516,113.921,57.617z"/>
	<path class="st1" d="M128,47.328v4.136c-0.439-0.058-0.876-0.138-1.308-0.235c-1.47-0.329-3.605-0.873-3.255-2.843
		c0.136-0.776,0.728-1.417,1.492-1.62c0.754-0.201,1.424,0.15,2.139,0.346C127.377,47.197,127.687,47.27,128,47.328z"/>
	<path class="st1" d="M128,22.851v11.01c-0.306-0.186-0.589-0.394-0.844-0.592c-0.992-0.778-1.72-1.852-1.97-3.094
		C124.643,27.458,126.316,24.838,128,22.851z"/>
	<path class="st1" d="M128,5.292v11.007c-1.819,1.762-3.641,3.551-5.232,5.493c-1.904,2.323-3.447,5.142-3.549,8.2
		c-0.107,3.189,1.523,6.203,3.983,8.183c1.24,0.996,3.015,1.924,4.798,2.215v4.076c-1.868-0.186-3.711-0.822-5.32-1.724
		c-5.725-3.208-8.784-9.873-7.042-16.236c0.864-3.155,2.7-5.971,4.885-8.377c2.351-2.587,4.893-5.021,7.389-7.465
		c-3.071-2.609-6.215-5.36-8.628-8.604c-0.48-0.648-0.907-1.337-1.269-2.06h4.786c1.322,1.789,3.098,3.351,4.645,4.787
		C127.631,4.956,127.816,5.128,128,5.292z"/>
	<path class="st1" d="M120.331,59.201"/>
	<path class="st1" d="M128,59.128v4.231c-1.405-0.329-2.77-0.824-4.046-1.496c-1.62-0.856-5.858-3.324-3.624-5.551
		c0.822-0.817,2.069-0.742,2.899,0c0.999,0.892,2.006,1.668,3.233,2.229C126.962,58.77,127.476,58.966,128,59.128z"/>
	<path class="st1" d="M124.893,90.179c-0.199,0.718-0.061,1.453-0.381,2.161c-0.33,0.732-0.961,1.238-1.703,1.525
		c-1.574,0.612-3.435,0.358-4.985-0.201c-3.478-1.25-5.698-4.301-6.363-7.867c-0.344-1.845-0.277-3.754,0.085-5.592
		c0.138-0.708,0.32-1.407,0.553-2.091c0.155-0.45,0.393-0.892,0.42-1.376c0.085-1.675-1.895-2.391-2.976-3.307
		c-1.29-1.09-2.416-2.364-3.386-3.742c-2.346-3.326-3.908-7.313-4.487-11.336c-0.133-0.943-0.204-1.888-0.184-2.841
		c0.017-0.74-0.16-1.419-0.769-1.898c-1.281-1.006-3.231-0.123-3.316,1.496c-0.209,3.936,0.895,8.014,2.443,11.604
		c1.71,3.967,4.247,7.652,7.673,10.337c0.094,0.075,0.216,0.145,0.298,0.23c0.192,0.198,0.143,0.092,0.148,0.338
		c0.005,0.196-0.129,0.459-0.177,0.653c-0.121,0.474-0.228,0.955-0.315,1.438c-0.216,1.185-0.33,2.388-0.33,3.592
		c0,3.648,1.113,7.402,3.498,10.219c2.319,2.737,5.819,4.523,9.412,4.746c3.146,0.193,6.411-0.989,7.951-3.762v-5.488
		C126.874,88.279,125.259,88.847,124.893,90.179z"/>
	<path class="st1" d="M128,77.695v4.052c-1.162-0.053-2.317-0.022-3.452,0.126c-1.948,0.254-3.791,1.008-3.799,3.232
		c-0.002,0.895,0.437,1.842,0.155,2.715c-0.262,0.81-1.021,1.385-1.873,1.419c-2.091,0.08-2.338-2.338-2.377-3.887
		c-0.051-2.007,0.59-3.982,2.096-5.367C121.157,77.772,124.747,77.496,128,77.695z"/>
	<path class="st1" d="M128,69.664v4.359c-0.182,0.048-0.371,0.075-0.565,0.075c-1.232,0-2.263-1.025-2.263-2.253
		c0-1.267,1.089-2.299,2.355-2.251C127.689,69.601,127.847,69.625,128,69.664z"/>
	<path class="st1" d="M106.514,48.459c-1.231,0-2.262,1.026-2.262,2.254c0,1.227,1.03,2.254,2.262,2.254
		c1.196,0,2.212-0.97,2.258-2.161C108.821,49.544,107.786,48.459,106.514,48.459z"/>
	<path class="st1" d="M128,102.873v4.637c-0.968,0.377-2.011,0.597-2.908,0.435c-1.519-0.271-2.198-2.137-1.211-3.317
		c0.556-0.667,1.266-0.665,2.052-0.822C126.69,103.654,127.391,103.342,128,102.873z"/>
	<path class="st1" d="M121.299,100.314c-0.682-0.727-1.698-0.796-2.549-0.356c-0.944,0.488-1.826,0.735-2.905,0.698
		c-2.134-0.073-4.548-1.051-5.677-2.949c-0.483-0.812-0.686-1.649-1.721-1.919c-0.86-0.225-1.792,0.149-2.259,0.901
		c-1.011,1.628,0.753,3.798,1.868,4.892c1.844,1.81,4.393,2.871,6.954,3.111c-2.539,3.469-5.015,6.985-7.463,10.519
		c-1.206,1.741-2.566,3.459-3.627,5.295c-0.842,1.457,0.332,3.339,2.053,3.081c1.075-0.162,1.556-1.116,2.107-1.924
		c2.167-3.177,4.36-6.337,6.583-9.475c1.498-2.115,3.011-4.22,4.553-6.303c0.727-0.981,1.51-1.932,2.211-2.931
		C121.994,102.144,121.997,101.059,121.299,100.314z"/>
	<path class="st1" d="M120.966,112.595c-1.232,0-2.262,1.026-2.262,2.254c0,1.227,1.03,2.254,2.262,2.254
		c1.196,0,2.212-0.97,2.258-2.161C123.273,113.68,122.238,112.595,120.966,112.595z"/>
	<path class="st1" d="M96.054,106.637c-1.231,0-2.262,1.026-2.262,2.254c0,1.227,1.03,2.254,2.262,2.254
		c1.196,0,2.212-0.97,2.258-2.162C98.361,107.721,97.326,106.637,96.054,106.637z"/>
	<path class="st1" d="M103.976,101.461c-0.575-0.836-1.368-1.973-2.433-2.181c-0.958-0.189-1.945,0.343-2.304,1.247
		c-0.415,1.037,0.114,1.806,0.793,2.539c0.774,0.832,1.298,1.871,1.594,2.964c0.619,2.272,0.32,4.896-0.99,6.883
		c-1.213,1.84-3.595,3.186-5.766,2.198c-0.825-0.375-1.448-0.969-2.055-1.617c-0.621-0.665-1.55-0.936-2.409-0.546
		c-0.863,0.392-1.358,1.347-1.164,2.275c0.158,0.766,0.8,1.359,1.351,1.869c1.664,1.542,3.85,2.558,6.154,2.454
		c5.734-0.259,9.281-5.93,9.281-11.205C106.028,105.914,105.361,103.468,103.976,101.461z"/>
	<path class="st1" d="M20.951,21.946c-1.002,1.569-2.848,0.592-4.327,0.723c-1.929,0.167-2.967,1.651-2.787,3.534
		c0.192,2.007,1.654,3.189,2.824,4.68c1.227,1.564,2.222,3.322,2.537,5.306c0.638,4.006-1.021,8.002-3.978,10.69
		c-2.865,2.604-6.683,4.163-10.511,4.62C3.146,51.684,1.557,51.684,0,51.464v-4.136c1.7,0.322,3.469,0.283,5.169-0.027
		c3.576-0.648,7.588-2.594,9.271-5.983c0.871-1.753,1.096-4.086,0.279-5.892c-0.859-1.893-2.533-3.143-3.617-4.869
		c-1.86-2.957-1.882-7.127,0.396-9.699c0.538-0.612,1.21-1.132,2.016-1.525c1.674-0.817,3.6-0.907,5.414-0.617
		c0.861,0.135,1.664,0.351,2.106,1.173C21.375,20.532,21.346,21.332,20.951,21.946z"/>
	<path class="st1" d="M22.668,12.261c-0.247,0.676-0.112,1.449,0.349,2.003c0.515,0.619,1.383,0.774,2.051,1.177
		c1.583,0.956,2.725,2.503,3.498,4.154c1.691,3.61,1.836,7.847,1.18,11.722c-0.65,3.842-2.035,7.734-4.107,11.048
		c-2.04,3.262-4.897,5.844-8.209,7.785c-0.748,0.439-1.515,0.846-2.294,1.229c-0.813,0.4-1.94,0.675-2.549,1.374
		c-1.059,1.216-0.295,3.181,1.309,3.369c0.862,0.101,1.696-0.432,2.445-0.786c0.957-0.453,1.899-0.938,2.819-1.464
		c1.741-0.995,3.402-2.134,4.917-3.448c5.962-5.17,9.422-13.255,10.034-21.032c0.342-4.341-0.272-8.939-2.472-12.761
		c-1.055-1.832-2.492-3.464-4.296-4.593C25.956,11.173,23.477,10.044,22.668,12.261z"/>
	<path class="st1" d="M20.357,4.746c-0.594,2.659-2.54,5.045-4.218,7.12c-1.846,2.285-3.85,4.446-5.899,6.549
		c-0.218,0.222-0.437,0.445-0.657,0.667c-1.538,1.55-3.117,3.061-4.701,4.567c-0.985,0.94-1.933,1.944-2.695,3.075
		c-0.386,0.575-1.002,1.511-1.002,2.321c0,0.312,0.092,0.604,0.325,0.851c0.771,0.815,1.928,0.8,2.195,2.094
		c0.211,1.025-0.422,2.072-1.426,2.369C1.506,34.585,0.701,34.285,0,33.86v-11.01c0.034-0.039,0.065-0.077,0.099-0.116
		c1.759-2.05,3.857-3.815,5.768-5.722c2.069-2.062,4.092-4.18,5.992-6.402c0.939-1.098,1.848-2.224,2.683-3.404
		c0.691-0.977,1.48-2.067,1.79-3.242c0.502-1.907-0.825-3.126-2.38-3.965h5.795C20.495,1.412,20.737,3.044,20.357,4.746z"/>
	<path class="st1" d="M10.853,5.872c-0.73,0.832-1.647,1.545-2.45,2.304c-2.198,2.077-4.374,4.175-6.528,6.295
		C1.257,15.08,0.628,15.687,0,16.299V5.292C0.456,5.71,0.914,6.119,1.378,6.525C1.63,6.745,1.88,6.963,2.135,7.18
		c0.116,0.099,0.56,0.614,0.73,0.621c0.189,0.007,0.968-0.928,1.101-1.054c0.291-0.278,0.585-0.556,0.876-0.834
		C5.29,5.488,5.739,5.065,6.188,4.642C7.056,3.825,8.126,2.468,9.39,2.468c0.303,0,0.616,0.077,0.941,0.259
		C11.471,3.365,11.702,4.903,10.853,5.872z"/>
	<path class="st1" d="M8.907,37.419c0.599,1.216-0.245,2.826-0.939,3.834c-0.895,1.303-2.22,2.251-3.711,2.763
		C2.887,44.487,1.436,44.611,0,44.466V40.39c1.298,0.213,2.598,0.087,3.694-0.6c0.611-0.382,1.045-0.955,1.283-1.632
		c0.206-0.595,0.352-1.11,0.888-1.499C6.882,35.929,8.357,36.297,8.907,37.419z"/>
	<path class="st1" d="M43.685,20.363c-0.09-1.77-0.313-3.534-0.67-5.273c-0.774-3.796-2.181-7.46-4.133-10.809
		C38.011,2.795,37.033,1.354,35.947,0h-5.819c0.172,0.554,0.17,1.228,0.007,1.733c-0.534,1.661-2.319,2.693-3.786,3.426
		c-1.116,0.556-1.649,1.888-0.929,2.995c0.16,0.247,0.34,0.435,0.529,0.573c0.98,0.711,2.292,0.114,3.311-0.474
		c1.822-1.047,3.529-2.505,4.444-4.431c3.932,5.452,6.028,12.124,5.924,18.835c-0.022,1.349-0.563,3.165,0.75,4.088
		c1.143,0.803,2.794,0.208,3.158-1.136c0.206-0.759,0.158-1.642,0.182-2.425C43.74,22.244,43.731,21.303,43.685,20.363z"/>
	<path class="st1" d="M49.147,2.829c0.005,0.812,0.143,1.629,0.136,2.437c-0.015,1.148-0.999,2.094-2.159,2.028
		c-1.417-0.082-1.802-1.337-2.295-2.437C44.092,3.203,43.277,1.576,42.368,0h6.938C49.191,0.938,49.143,1.886,49.147,2.829z"/>
	<path class="st1" d="M59.922,16.613c-0.866,1.03-2.054,1.714-3.333,2.108c-0.703,0.218-1.434,0.351-2.169,0.428
		c-0.621,0.065-1.329,0.176-1.933-0.029c-1.121-0.38-1.695-1.678-1.218-2.759c0.602-1.359,1.989-1.143,3.214-1.342
		c1.181-0.189,2.37-0.633,2.724-1.886c0.361-1.276,0.07-2.739-0.216-3.999c-0.354-1.554-0.859-3.073-1.371-4.584
		c-0.495-1.467-1.14-2.959-1.368-4.499C54.251,0.036,54.249,0.017,54.246,0h4.15c0.238,1.107,0.762,2.222,1.106,3.237
		c0.521,1.545,1.033,3.094,1.414,4.68C61.601,10.777,61.955,14.191,59.922,16.613z"/>
	<path class="st1" d="M61.514,43.74c-1.024-2.553-2.809-4.656-5.055-6.235c-0.512-0.363-1.046-0.696-1.591-1.008
		c-0.272-0.157-0.614-0.28-0.861-0.471c-0.381-0.292-0.141,0-0.177-0.292c-0.022-0.172,0.121-0.542,0.153-0.704
		c0.281-1.388,0.437-2.799,0.483-4.216c0.078-2.406-0.085-4.941-0.721-7.277c-0.56-2.06-3.639-2.185-4.031,0.061
		c-0.146,0.841,0.277,1.886,0.4,2.703c0.211,1.409,0.296,2.841,0.257,4.264c-0.087,3.169-0.827,6.351-2.455,9.095
		c-0.388,0.655-0.825,1.284-1.305,1.874c-0.461,0.57-1.128,1.076-1.482,1.719c-0.66,1.204,0.083,2.739,1.431,2.988
		c1.514,0.28,2.552-1.272,3.367-2.299c1.004-1.264,1.844-2.65,2.513-4.117c2.348,1.279,4.349,3.034,5.325,5.575
		c0.441,1.156,0.679,2.379,0.813,3.602c0.068,0.614,0.109,1.23,0.131,1.849c0.024,0.646-0.08,1.368,0.15,1.985
		c0.378,1.01,1.521,1.559,2.552,1.228c1.138-0.365,1.429-1.388,1.417-2.454C62.792,48.948,62.511,46.23,61.514,43.74z"/>
	<path class="st1" d="M55.115,56.657c-0.526-2.217-1.822-4.281-3.629-5.681c-1.443-1.117-4.772-2.589-6.04-0.459
		c-0.468,0.788-0.34,1.828,0.306,2.478c0.289,0.29,0.667,0.493,1.07,0.571c0.378,0.072,0.742-0.041,1.116,0.063
		c2.127,0.6,3.423,3.447,3.333,5.471c-0.228,5.118-6.525,7.456-10.394,4.492c-1.681-1.289-2.717-3.237-3.347-5.217
		c-0.31-0.965-0.529-1.958-0.684-2.961c-0.085-0.537-0.15-1.076-0.199-1.617c-0.029-0.319-0.09-0.674-0.073-0.994
		c0.017-0.384,0.221-0.585,0.444-0.911c2.418-3.525,4.148-7.49,4.757-11.73c0.024-0.157,0.046-0.314,0.065-0.469
		c0.078-0.638,0.073-1.24-0.378-1.801c-0.575-0.72-1.594-0.972-2.438-0.592c-0.822,0.37-1.135,1.114-1.259,1.949
		c-0.143,0.96-0.303,1.91-0.558,2.848c-1.101,4.049-3.408,7.697-6.183,10.811c-1.426,1.598-2.989,3.073-4.638,4.436
		c-0.948,0.783-1.928,1.533-2.93,2.248c-0.842,0.599-2.004,1.105-2.266,2.197c-0.218,0.924,0.24,1.903,1.101,2.316
		c1.014,0.488,1.856-0.015,2.69-0.588c1.982-1.366,3.886-2.845,5.674-4.456c0.786-0.708,1.548-1.443,2.283-2.205
		c0.704,3.752,2.292,7.533,5.39,9.936c3.09,2.396,7.316,2.918,10.899,1.334C53.545,66.209,56.213,61.297,55.115,56.657z"/>
	<path class="st1" d="M31.241,68.378c-4.31,4.064-9.693,7.533-15.876,6.486c-5.288-0.892-10.763-4.177-12.257-9.593
		c-0.097-0.346-0.172-0.699-0.233-1.052c-0.002-0.01-0.029-0.382-0.063-0.418c-0.068-0.07-0.519-0.051-0.636-0.063
		c-0.723-0.085-1.441-0.208-2.149-0.375C0.017,63.361,0.01,63.359,0,63.356v-4.228c1.79,0.556,3.697,0.735,5.565,0.646
		c1.269-0.06,2.532-0.247,3.767-0.544c0.589-0.145,1.176-0.314,1.751-0.51c0.49-0.167,0.975-0.425,1.499-0.464
		c0.051-0.005,0.102-0.005,0.153-0.005c1.877,0,2.765,2.505,1.225,3.67c-0.854,0.646-2.21,0.904-3.229,1.17
		c-1.237,0.324-2.501,0.549-3.772,0.674c0.628,3.044,3.202,5.007,5.938,6.133c3.01,1.243,6.156,1.492,9.167,0.092
		c1.293-0.602,2.484-1.407,3.612-2.275c1.053-0.81,1.987-1.799,3.059-2.575c0.902-0.655,2.19-0.493,2.87,0.406
		C32.303,66.473,32.036,67.626,31.241,68.378z"/>
	<path class="st1" d="M0.189,89.159C0.129,89.108,0.065,89.06,0,89.021v5.488c0.172-0.305,0.32-0.629,0.446-0.972
		C0.914,92.256,1.404,90.179,0.189,89.159z"/>
	<path class="st1" d="M36.66,74.89c-0.711,1.726-2.462,3.136-3.942,4.19c-6.545,4.656-15.546,6.261-23.321,4.325
		C6.401,82.658,3.178,81.889,0,81.746v-4.052c0.74,0.044,1.46,0.111,2.147,0.189c2.013,0.225,4.01,0.59,5.987,1.027
		c2.023,0.447,4,0.986,6.076,1.139c4.104,0.302,8.293-0.454,12.07-2.065c1.722-0.735,3.403-1.651,4.854-2.838
		c0.662-0.544,1.3-1.148,1.754-1.878c0.357-0.573,0.764-1.02,1.455-1.168C35.944,71.76,37.276,73.399,36.66,74.89z"/>
	<path class="st1" d="M11.99,93.961c5.637,0.925,11.618,0.196,17.002-1.631c2.631-0.893,5.169-2.092,7.478-3.638
		c1.127-0.755,2.2-1.592,3.194-2.514c0.863-0.801,1.359-1.923,0.582-2.992c-0.659-0.907-1.948-1.105-2.859-0.459
		c-0.519,0.368-0.958,0.871-1.452,1.277c-0.55,0.452-1.123,0.875-1.714,1.272c-2.32,1.56-4.91,2.71-7.583,3.519
		c-5.211,1.577-11.424,2.247-16.678,0.484c-0.678-0.228-1.344-0.505-1.959-0.872c-0.553-0.33-1.035-0.632-1.708-0.564
		c-1.177,0.12-2.026,1.253-1.806,2.412c0.244,1.283,1.71,1.887,2.777,2.36C8.766,93.28,10.373,93.695,11.99,93.961z"/>
	<path class="st1" d="M42.263,96.83c1.265,0.998,2.53,0.164,3.325-0.918c0.998-1.359,1.815-2.847,2.461-4.403
		c0.67-1.613,1.159-3.301,1.466-5.019c0.074-0.416,0.139-0.834,0.192-1.253c0.02-0.155,0.021-0.924,0.109-0.992
		c0.065-0.05,0.373-0.012,0.451-0.014c1.635-0.053,3.27-0.105,4.904-0.158c0.472-0.015,0.949-0.011,1.42-0.046
		c1.187-0.089,2.134-1.069,1.982-2.294c-0.254-2.051-2.379-1.781-3.871-1.733c-0.92,0.03-1.84,0.059-2.76,0.089
		c-0.384,0.012-0.767,0.025-1.151,0.037c-0.225,0.007-0.61,0.099-0.825,0.026c-0.04-0.013-0.119,0.028-0.154,0.005
		c-0.076-0.05-0.087-0.619-0.103-0.733c-0.116-0.819-0.289-1.631-0.537-2.42c-0.445-1.417-1.187-3.052-2.417-3.97
		c-1.062-0.792-2.638-0.379-3.141,0.857c-0.576,1.415,0.621,2.118,1.195,3.215c0.827,1.582,0.948,3.393,0.92,5.128
		c-0.015,0.9,0.012,1.758-0.111,2.666c-0.133,0.984-0.337,1.959-0.612,2.913c-0.507,1.762-1.247,3.463-2.251,5
		c-0.44,0.674-1.132,1.3-1.249,2.128C41.404,95.654,41.697,96.384,42.263,96.83z"/>
	<path class="st1" d="M42.404,30.427c-1.231,0-2.262,1.026-2.262,2.254c0,1.227,1.03,2.254,2.262,2.254
		c1.196,0,2.212-0.97,2.258-2.161C44.711,31.512,43.676,30.427,42.404,30.427z"/>
	<path class="st1" d="M19.506,27.892c0,1.227,1.03,2.254,2.262,2.254c1.231,0,2.262-1.027,2.262-2.254
		c0-1.192-0.974-2.204-2.169-2.25C20.594,25.593,19.506,26.624,19.506,27.892z"/>
	<path class="st1" d="M42.969,58.602c0,1.227,1.03,2.254,2.262,2.254c1.231,0,2.262-1.027,2.262-2.254
		c0-1.192-0.974-2.204-2.169-2.25C44.058,56.303,42.969,57.335,42.969,58.602z"/>
	<path class="st1" d="M79.72,64.657c-1.231,0-2.262,1.026-2.262,2.254c0,1.227,1.03,2.254,2.262,2.254
		c1.196,0,2.212-0.97,2.258-2.162C82.027,65.741,80.992,64.657,79.72,64.657z"/>
	<path class="st1" d="M1.696,71.844c0,1.032-0.73,1.922-1.696,2.178v-4.359C0.97,69.917,1.696,70.814,1.696,71.844z"/>
	<path class="st1" d="M70.285,39.355c-1.439-3.44-3.903-6.184-6.838-8.435c-1.167-0.895-2.697-2.427-4.204-1.264
		c-0.58,0.447-0.878,1.185-0.776,1.905c0.133,0.933,0.859,1.39,1.56,1.907c3.022,2.234,5.611,4.794,6.836,8.423
		c1.189,3.515,1.286,7.54,0.119,11.065c-1.235,3.723-3.512,7.064-6.009,10.057c-1.142,1.366-2.355,2.674-3.624,3.924
		c-0.548,0.537-1.106,1.066-1.679,1.579c-0.417,0.372-0.939,0.723-1.213,1.221c-0.403,0.735-0.306,1.671,0.24,2.306
		c0.218,0.251,0.485,0.379,0.752,0.551c0.027,0.017,0.053,0.034,0.08,0.053c0.366,0.249,0.682,0.592,0.985,0.909
		c0.75,0.786,1.438,1.632,2.103,2.488c0.354,0.457,0.665,0.979,1.189,1.262c1.562,0.839,3.428-0.66,2.945-2.357
		c-0.192-0.679-0.781-1.269-1.208-1.806c-0.682-0.861-1.388-1.704-2.152-2.495c2.874-2.712,5.516-5.708,7.721-8.988
		c2.239-3.336,4.095-7.088,4.623-11.109C72.221,46.845,71.726,42.807,70.285,39.355z"/>
	<path class="st1" d="M68.167,4.028c-0.526-1.204-1.104-3.085-2.659-3.244c-1.623-0.164-2.79,1.622-1.991,3.036
		c2.709,4.905,5.247,13.603-1.196,16.724c-0.667,0.321-1.392,0.486-1.829,1.136c-0.405,0.6-0.458,1.388-0.141,2.038
		c0.822,1.675,2.586,1.083,3.884,0.44c3.26-1.62,5.467-4.543,6.055-8.135C70.95,11.967,69.783,7.731,68.167,4.028z"/>
	<path class="st1" d="M36.408,99.846c-5.106,4.692-12.114,5.539-18.734,4.487c-0.199-0.031-0.398-0.065-0.594-0.099
		c-3.258-0.575-6.353-1.644-9.521-2.555c-0.349-0.102-0.708-0.285-1.038-0.133c-0.495,0.227-0.914,1.069-1.218,1.484
		c-0.958,1.315-1.984,2.577-3.362,3.481c-0.543,0.358-1.22,0.721-1.941,0.999v-4.637c0.022-0.014,0.044-0.032,0.065-0.048
		c1.455-1.151,2.207-2.935,3.561-4.185c1.307-1.206,2.877-1.463,4.565-1.025c1.538,0.399,3.039,0.943,4.565,1.388
		c3.379,0.989,6.882,1.736,10.418,1.678c3.379-0.056,6.734-0.931,9.448-2.995c1.13-0.858,2.246-2.345,3.806-1.366
		C37.863,97.221,37.468,98.875,36.408,99.846z"/>
	<path class="st1" d="M7.404,97.44"/>
	<path class="st1" d="M71.24,68.868c0.883-1.156,1.745-2.328,2.598-3.507c0.507-0.701,1.184-1.412,1.143-2.335
		c-0.048-1.077-0.956-1.958-2.043-1.959c-0.841-0.001-1.413,0.495-1.872,1.137c-1.531,2.138-3.059,4.311-4.775,6.308
		c-0.607,0.706-1.386,1.25-1.338,2.292c0.031,0.668,0.369,1.036,0.775,1.516c0.309,0.366,0.489,0.845,0.647,1.291
		c0.899,2.538,1.041,5.415,0.923,8.081c-0.126,2.861-0.634,5.81-1.908,8.401c-0.519,1.055-1.409,2.027-0.783,3.249
		c0.493,0.964,1.695,1.374,2.678,0.926c1.108-0.505,1.678-2.085,2.132-3.126c0.59-1.354,1.023-2.773,1.336-4.215
		c0.696-3.203,0.842-6.548,0.502-9.805c-0.165-1.582-0.442-3.169-0.95-4.68c-0.114-0.339-0.24-0.675-0.384-1.002
		c-0.157-0.356-0.297-0.424-0.126-0.738C70.15,70.054,70.791,69.457,71.24,68.868z"/>
	<path class="st1" d="M57.749,93.198c0.324-0.961,0.633-1.927,0.92-2.9c0.165-0.558,0.29-1.096,0.083-1.673
		c-0.657-1.832-3.378-1.741-3.905,0.137l0,0v0c-1.352,4.772-3.112,9.655-5.696,13.907c-0.376,0.62-0.778,1.226-1.222,1.8
		c-0.4,0.517-0.9,0.96-1.034,1.627c-0.218,1.089,0.513,2.187,1.607,2.404c1.4,0.278,2.229-0.926,2.953-1.91
		c0.914-1.243,1.693-2.584,2.401-3.952C55.422,99.614,56.663,96.422,57.749,93.198z"/>
	<path class="st1" d="M44.313,119.917c-0.963-1.136-2.028-2.186-3.141-3.177c-2.205-1.953-4.602-3.687-7.078-5.282
		c2.19-1.189,4.17-2.756,5.979-4.458c0.752-0.708,1.482-1.441,2.171-2.21c0.475-0.529,0.851-1.09,0.788-1.842
		c-0.08-0.977-0.881-1.782-1.863-1.866c-0.854-0.073-1.443,0.384-1.975,0.979c-1.543,1.719-3.287,3.307-5.179,4.634
		c-1.05,0.737-2.164,1.402-3.36,1.871c-0.96,0.377-2.2,0.375-2.862,1.257c-0.626,0.834-0.509,2.035,0.264,2.734
		c0.31,0.28,0.728,0.467,1.092,0.674c4.211,2.422,8.449,5.285,11.692,8.933c0.742,0.834,1.375,2.227,2.552,2.492
		c1.091,0.244,2.202-0.447,2.452-1.537C46.135,121.856,45.06,120.804,44.313,119.917z"/>
	<path class="st1" d="M43.818,109.879c-1.232,0-2.262,1.026-2.262,2.254c0,1.227,1.03,2.254,2.262,2.254
		c1.196,0,2.212-0.97,2.258-2.161C46.124,110.964,45.089,109.879,43.818,109.879z"/>
	<path class="st1" d="M22.335,108.299c-3.968-1.547-8.598-2.284-12.434,0.02c-1.829,1.099-3.223,2.724-4.411,4.467
		c-0.589,0.864-1.121,1.769-1.737,2.615c-0.214,0.294-0.534,0.827-0.884,0.975c-0.239,0.101-0.545,0.012-0.811,0.071
		c-1.73,0.387-2.156,2.738-0.672,3.704c1.615,1.051,3.782-0.156,4.898-1.374c1.494-1.632,2.402-3.707,3.87-5.365
		c1.373-1.551,3.131-2.466,5.221-2.495c1.101-0.015,2.198,0.172,3.259,0.454c0.97,0.258,2.085,0.937,3.097,0.866
		C23.854,112.09,24.319,109.073,22.335,108.299z"/>
	<path class="st1" d="M73.981,101.137c2.672-3.388,4.525-7.317,5.45-11.526c0.965-4.387,0.971-8.912,0.766-13.377
		c-0.073-1.588,0.161-4.25-2.107-4.322c-0.786-0.025-1.537,0.418-1.894,1.116c-0.417,0.815-0.169,1.873-0.125,2.747
		c0.217,4.304,0.289,8.685-0.635,12.919c-0.452,2.07-1.151,4.083-2.124,5.968c-0.471,0.913-1.003,1.795-1.587,2.64
		c-0.576,0.834-1.175,1.77-2.055,2.316c-1.715,1.064-3.786,0.193-5.648,0.288c-0.949,0.049-1.87,0.366-2.533,1.065
		c-0.576,0.607-0.907,1.458-1.315,2.181c-2.041,3.617-4.19,7.176-6.325,10.738c-0.373,0.623-0.933,1.303-1.035,2.038
		c-0.108,0.774,0.242,1.554,0.896,1.987c1.104,0.73,2.361,0.207,3-0.832c1.967-3.203,3.867-6.452,5.757-9.7
		c0.515-0.884,1.028-1.77,1.525-2.664c0.095-0.17,0.175-0.381,0.294-0.534c0.203-0.261,0.295-0.196,0.636-0.163
		c0.436,0.042,0.869,0.1,1.305,0.141c1.949,0.181,3.896-0.017,5.592-1.063C72.653,102.587,73.378,101.904,73.981,101.137z"/>
	<path class="st1" d="M84.179,63.989c0.587,1.241,1.029,2.547,1.383,3.871c0.4,1.497,0.678,2.985,1.392,4.378
		c1.427,2.785,3.97,4.743,6.865,5.849c1.423,0.544,2.918,0.896,4.427,1.099c1.137,0.153,2.564,0.403,3.707,0.138
		c1.19-0.275,1.881-1.572,1.451-2.71c-0.413-1.091-1.396-1.308-2.436-1.316c-2.925-0.021-6.182-0.715-8.486-2.607
		c-2.464-2.024-2.604-5.069-3.567-7.889c-0.897-2.629-2.198-5.212-4.216-7.168c-2.183-2.115-5.061-3.17-8.095-2.937
		c-1.198,0.092-2.327,0.709-2.327,2.069c0,1.533,1.353,2.094,2.666,2.002C80.443,58.525,82.793,61.058,84.179,63.989z"/>
	<path class="st1" d="M78.577,48.674c3.644,0.376,7.047,2.649,9.188,5.538c1.084,1.463,1.898,3.111,2.487,4.829
		c0.285,0.833,0.373,1.904,1.021,2.55c0.58,0.579,1.473,0.755,2.232,0.444c2.044-0.838,1.023-3.231,0.485-4.717
		c-0.641-1.769-1.485-3.469-2.558-5.018c-2.26-3.265-5.533-5.764-9.323-7c-1.267-0.413-3.431-1.218-4.683-0.354
		c-0.756,0.521-1.075,1.508-0.763,2.37C76.97,48.167,77.717,48.584,78.577,48.674z"/>
	<path class="st1" d="M86.46,11.633c-1.218-0.14-1.853,0.737-2.443,1.642c-3.367,5.169-5.771,11.176-6.533,17.31
		c-1.434-1.823-3.207-3.459-5.319-4.458c-0.72-0.341-1.599-0.733-2.419-0.701c-0.978,0.036-1.812,0.788-1.95,1.753
		c-0.303,2.123,2.105,2.26,3.423,3.087c1.746,1.1,3.11,2.753,4.192,4.487c0.626,1.001,1.167,2.057,1.645,3.138
		c0.454,1.025,0.684,2.466,1.81,2.983c0.956,0.438,2.122,0.061,2.639-0.851c0.597-1.054,0.019-2.514-0.078-3.643
		c-0.48-5.647,1.094-11.345,3.527-16.408c0.568-1.182,1.191-2.34,1.87-3.467c0.505-0.834,1.414-1.767,1.446-2.78
		C88.301,12.675,87.505,11.754,86.46,11.633z"/>
	<path class="st1" d="M104.93,90.635c-0.962-1.585-1.883-3.399-2.199-5.238c-0.15-0.876-0.368-1.65-1.264-2.041
		c-0.453-0.198-0.93-0.176-1.415-0.198c-0.647-0.028-1.294-0.072-1.939-0.133c-3.36-0.316-7.149-1.016-9.965-2.997
		c-0.627-0.441-1.311-0.657-2.066-0.383c-0.852,0.308-1.407,1.173-1.337,2.072c0.1,1.3,1.448,1.983,2.464,2.529
		c1.613,0.866,3.36,1.478,5.131,1.931c1.009,0.258,2.031,0.463,3.059,0.624c0.544,0.085,1.09,0.158,1.638,0.219
		c0.29,0.032,0.58,0.062,0.87,0.088c0.2,0.018,0.882-0.049,1.037,0.08c0.134,0.112,0.222,0.742,0.285,0.927
		c0.115,0.338,0.241,0.672,0.375,1.004c0.252,0.622,0.532,1.232,0.833,1.831c0.377,0.752,0.759,1.745,1.418,2.306
		C103.59,94.734,106.093,92.57,104.93,90.635z"/>
	<path class="st1" d="M94.705,90.507c-1.276-0.015-2.564-0.161-3.813-0.416c-0.87-0.178-1.744-0.416-2.554-0.784
		c-0.721-0.328-1.287-0.981-2.028-1.229c-0.713-0.239-1.521-0.061-2.066,0.456c-0.55,0.522-0.576,1.149-0.696,1.841
		c-0.294,1.697-1.074,3.336-1.82,4.875c-0.773,1.592-1.631,3.144-2.533,4.667c-0.505,0.852-1.477,1.927-1.522,2.967
		c-0.06,1.387,1.317,2.449,2.649,2.043c0.814-0.249,1.183-0.934,1.597-1.601c1.98-3.196,3.908-6.56,5.108-10.134
		c2.326,0.959,5.127,1.475,7.651,1.401C97.322,94.514,97.37,90.51,94.705,90.507z"/>
	<path class="st1" d="M90.969,8.222c-1.378,0.571-2.275-0.537-3.27-1.284c-1.053-0.788-2.256-1.484-3.568-1.719
		c-1.441-0.259-2.838,0.174-3.973,1.076c-0.354,0.285-1.164,0.882-1.295,1.349c-0.087,0.302,0.143,0.967,0.175,1.276
		c0.039,0.372,0.065,0.747,0.082,1.124c0.138,3.123-0.468,6.273-1.582,9.189c-0.59,1.54-1.647,4.523-3.913,3.249
		c-1.019-0.571-1.264-1.777-0.781-2.778c0.497-1.03,0.946-2.062,1.288-3.157c0.963-3.08,1.264-6.445,0.386-9.581
		c-0.42-1.492-1.099-2.903-1.994-4.17C71.903,1.915,71.175,1.025,71.568,0h4.039c0.762,0.967,1.373,2.137,1.87,3.206
		c2.838-2.331,6.535-2.72,9.865-1.223c1.526,0.687,3.214,1.716,4.342,2.966C92.618,5.981,92.276,7.678,90.969,8.222z"/>
	<path class="st1" d="M97.843,0c-0.223,0.694-0.8,1.274-1.625,1.397c-0.968,0.143-1.569-0.433-2.263-1.008
		C93.797,0.259,93.637,0.128,93.475,0H97.843z"/>
	<path class="st1" d="M91.944,99.738c-0.917-0.329-1.974,0.056-2.465,0.897c-0.315,0.542-0.493,1.187-0.75,1.758
		c-0.978,2.159-2.19,4.277-3.784,6.046c-0.781,0.868-1.751,1.861-2.877,2.265c-1.145,0.413-2.477,0.242-3.639,0
		c-2.161-0.45-4.131-1.375-6.086-2.359c-1.812-0.914-3.905,1.03-2.76,2.853c0.315,0.501,0.808,0.747,1.312,1.01
		c0.997,0.525,2.025,0.989,3.076,1.397c2.377,0.921,4.997,1.634,7.566,1.368c2.564-0.266,4.619-1.801,6.314-3.646
		c1.798-1.956,3.197-4.267,4.335-6.653C92.888,103.202,94.304,100.581,91.944,99.738z"/>
	<path class="st1" d="M113.797,3.74c-1.184,0.59-2.299-0.077-2.862-1.136c-0.48-0.907-1.011-1.782-1.623-2.604h4.876
		c0.143,0.254,0.279,0.51,0.41,0.771C115.139,1.845,114.971,3.155,113.797,3.74z"/>
</g>
</svg>
